<svg width="61" height="61" viewBox="0 0 61 61" fill="none" xmlns="http://www.w3.org/2000/svg">
<rect width="61" height="61" rx="30.5" fill="#726C73"/>
<path d="M14.672 39C14.496 39 14.344 38.936 14.216 38.808C14.088 38.68 14.024 38.528 14.024 38.352V28.656L11.336 30.72C11.24 30.8 11.12 30.84 10.976 30.84C10.768 30.84 10.584 30.736 10.424 30.528L8.312 27.792C8.248 27.632 8.216 27.512 8.216 27.432C8.216 27.32 8.24 27.216 8.288 27.12C8.352 27.008 8.432 26.92 8.528 26.856L14.312 22.368C14.472 22.256 14.648 22.2 14.84 22.2H19.376C19.552 22.2 19.704 22.264 19.832 22.392C19.96 22.52 20.024 22.672 20.024 22.848V38.352C20.024 38.528 19.96 38.68 19.832 38.808C19.704 38.936 19.552 39 19.376 39H14.672ZM29.8794 39.24C28.1034 39.24 26.6394 38.984 25.4874 38.472C24.3514 37.96 23.5194 37.296 22.9914 36.48C22.4794 35.648 22.2234 34.744 22.2234 33.768C22.2234 33 22.4154 32.288 22.7994 31.632C23.1834 30.976 23.6874 30.472 24.3114 30.12C23.3194 29.4 22.8234 28.36 22.8234 27C22.8234 26.088 23.0554 25.256 23.5194 24.504C23.9834 23.736 24.7434 23.12 25.7994 22.656C26.8554 22.192 28.2154 21.96 29.8794 21.96C32.2954 21.96 34.0634 22.44 35.1834 23.4C36.3034 24.344 36.8634 25.528 36.8634 26.952C36.8634 28.328 36.3914 29.384 35.4474 30.12C36.1034 30.44 36.6234 30.936 37.0074 31.608C37.3914 32.28 37.5834 33.016 37.5834 33.816C37.5834 34.776 37.3194 35.672 36.7914 36.504C36.2634 37.32 35.4234 37.984 34.2714 38.496C33.1194 38.992 31.6554 39.24 29.8794 39.24ZM29.8794 28.608C30.3434 28.608 30.7114 28.488 30.9834 28.248C31.2714 27.992 31.4154 27.68 31.4154 27.312C31.4154 26.944 31.2714 26.64 30.9834 26.4C30.7114 26.144 30.3434 26.016 29.8794 26.016C29.4154 26.016 29.0474 26.144 28.7754 26.4C28.5034 26.64 28.3674 26.944 28.3674 27.312C28.3674 27.68 28.5034 27.992 28.7754 28.248C29.0474 28.488 29.4154 28.608 29.8794 28.608ZM29.8794 35.208C30.3754 35.208 30.7754 35.08 31.0794 34.824C31.3994 34.568 31.5594 34.224 31.5594 33.792C31.5594 33.36 31.3994 33.016 31.0794 32.76C30.7754 32.504 30.3754 32.376 29.8794 32.376C29.3834 32.376 28.9754 32.504 28.6554 32.76C28.3514 33.016 28.1994 33.36 28.1994 33.792C28.1994 34.224 28.3514 34.568 28.6554 34.824C28.9754 35.08 29.3834 35.208 29.8794 35.208ZM44.1333 38.208C43.9573 38.208 43.8053 38.144 43.6773 38.016C43.5493 37.888 43.4853 37.736 43.4853 37.56V33.696H39.7653C39.5893 33.696 39.4373 33.632 39.3093 33.504C39.1813 33.376 39.1173 33.224 39.1173 33.048V30.432C39.1173 30.256 39.1813 30.104 39.3093 29.976C39.4373 29.848 39.5893 29.784 39.7653 29.784H43.4853V26.04C43.4853 25.864 43.5493 25.712 43.6773 25.584C43.8053 25.456 43.9573 25.392 44.1333 25.392H47.0613C47.2373 25.392 47.3893 25.456 47.5173 25.584C47.6453 25.712 47.7093 25.864 47.7093 26.04V29.784H51.3813C51.5573 29.784 51.7093 29.848 51.8373 29.976C51.9653 30.104 52.0293 30.256 52.0293 30.432V33.048C52.0293 33.224 51.9653 33.376 51.8373 33.504C51.7093 33.632 51.5573 33.696 51.3813 33.696H47.7093V37.56C47.7093 37.736 47.6453 37.888 47.5173 38.016C47.3893 38.144 47.2373 38.208 47.0613 38.208H44.1333Z" fill="#002937"/>
</svg>
