<svg width="230" height="26" viewBox="0 0 230 26" fill="none" xmlns="http://www.w3.org/2000/svg">
<path d="M46.2923 17.4151C46.2923 18.7075 46.1047 19.8255 45.7293 20.7689C45.3618 21.7028 44.8535 22.4764 44.2045 23.0896C43.5633 23.6934 42.8087 24.1415 41.9408 24.434C41.0806 24.717 40.154 24.8585 39.1609 24.8585C38.7777 24.8585 38.3555 24.7972 37.8941 24.6745C37.4406 24.5519 36.9793 24.4009 36.5101 24.2217C36.0409 24.033 35.5874 23.8349 35.1495 23.6274C34.7194 23.4104 34.3362 23.2075 34 23.0189L34.5161 17.4717C35.1808 17.9528 35.9158 18.3208 36.7212 18.5755C37.5344 18.8208 38.332 18.9434 39.114 18.9434C39.2626 18.9434 39.4424 18.9387 39.6535 18.9292C39.8647 18.9104 40.0641 18.8679 40.2517 18.8019C40.4472 18.7264 40.6114 18.6179 40.7444 18.4764C40.8773 18.3349 40.9438 18.1321 40.9438 17.8679C40.9438 17.6887 40.8968 17.5377 40.803 17.4151C40.7092 17.283 40.588 17.1792 40.4394 17.1038C40.2908 17.0189 40.1227 16.9575 39.935 16.9198C39.7474 16.8726 39.5636 16.8396 39.3838 16.8208C39.2039 16.8019 39.0358 16.7925 38.8794 16.7925C38.723 16.7925 38.5979 16.7925 38.5041 16.7925C37.8316 16.7925 37.2177 16.6651 36.6626 16.4104C36.1152 16.1557 35.6421 15.7972 35.2433 15.3349C34.8523 14.8632 34.5474 14.2972 34.3284 13.6368C34.1095 12.967 34 12.2264 34 11.4151C34 10.3019 34.1838 9.3066 34.5513 8.42925C34.9266 7.54245 35.4232 6.79245 36.0409 6.17925C36.6665 5.5566 37.382 5.08019 38.1874 4.75C38.9928 4.41981 39.8256 4.25472 40.6857 4.25472C41.0689 4.25472 41.4638 4.27358 41.8704 4.31132C42.277 4.33962 42.6797 4.39623 43.0785 4.48113C43.4851 4.56604 43.88 4.67453 44.2632 4.8066C44.6463 4.93868 45.0099 5.10377 45.354 5.30189L44.9083 11.0472C44.3766 10.8302 43.8175 10.6509 43.231 10.5094C42.6523 10.3585 42.0854 10.283 41.5302 10.283C41.4286 10.283 41.2956 10.2877 41.1314 10.2972C40.975 10.2972 40.8069 10.3113 40.6271 10.3396C40.455 10.3585 40.2791 10.3915 40.0993 10.4387C39.9194 10.4858 39.7591 10.5519 39.6184 10.6368C39.4776 10.7123 39.3642 10.816 39.2782 10.9481C39.1922 11.0802 39.1531 11.2358 39.1609 11.4151C39.1687 11.6226 39.2313 11.783 39.3486 11.8962C39.4737 12.0094 39.6301 12.0943 39.8177 12.1509C40.0132 12.1981 40.2244 12.2217 40.4511 12.2217C40.6857 12.2217 40.9164 12.217 41.1432 12.2075C41.3699 12.1887 41.5811 12.1745 41.7765 12.1651C41.972 12.1462 42.1323 12.1415 42.2575 12.1509C42.883 12.1981 43.446 12.3585 43.9465 12.6321C44.4469 12.9057 44.8692 13.2689 45.2132 13.7217C45.5651 14.1745 45.831 14.717 46.0108 15.3491C46.1985 15.9717 46.2923 16.6604 46.2923 17.4151Z" fill="white"/>
<path d="M60.9596 11.6132C60.9596 12.5283 60.8463 13.3396 60.6195 14.0472C60.3927 14.7547 60.0799 15.3774 59.6811 15.9151C59.2902 16.4434 58.8288 16.8915 58.2971 17.2594C57.7654 17.6179 57.1945 17.9151 56.5846 18.1509C55.9825 18.3774 55.3569 18.5472 54.7079 18.6604C54.0589 18.7642 53.4216 18.8208 52.796 18.8302V24.8585H47.3302C47.3302 23.783 47.3302 22.7358 47.3302 21.717C47.338 20.6981 47.3419 19.6887 47.3419 18.6887C47.3497 17.6792 47.3536 16.6651 47.3536 15.6462C47.3614 14.6274 47.3693 13.5755 47.3771 12.4906C47.3927 11.3396 47.3966 10.1887 47.3888 9.03774C47.381 7.88679 47.4005 6.72642 47.4474 5.5566C48.4484 5.19811 49.4493 4.92925 50.4502 4.75C51.4511 4.57075 52.4832 4.48113 53.5467 4.48113C54.1488 4.48113 54.7509 4.54245 55.353 4.66509C55.9551 4.7783 56.5299 4.96226 57.0772 5.21698C57.6324 5.4717 58.1446 5.79245 58.6138 6.17925C59.0908 6.5566 59.5013 7.00943 59.8454 7.53774C60.1894 8.06604 60.4592 8.66981 60.6547 9.34906C60.858 10.0283 60.9596 10.783 60.9596 11.6132ZM55.7518 12.0943C55.7518 11.4811 55.5954 11.0047 55.2826 10.6651C54.9777 10.316 54.5789 10.1415 54.0863 10.1415C53.922 10.1415 53.75 10.1604 53.5702 10.1981C53.3981 10.2264 53.2339 10.2642 53.0775 10.3113L52.9368 14.4434C53.0462 14.4623 53.1518 14.4717 53.2535 14.4717C53.3551 14.4717 53.4607 14.4717 53.5702 14.4717C53.8517 14.4717 54.1214 14.4151 54.3795 14.3019C54.6453 14.1887 54.8799 14.0283 55.0832 13.8208C55.2866 13.6038 55.4469 13.3538 55.5641 13.0708C55.6893 12.7783 55.7518 12.4528 55.7518 12.0943Z" fill="white"/>
<path d="M67.9911 4.73585L67.1701 24.0094L62.2203 24.3208L61.7511 5.13208L67.9911 4.73585Z" fill="white"/>
<path d="M82.2831 13.2264C82.2831 14.0472 82.2362 14.8679 82.1424 15.6887C80.8052 15.7925 79.4759 15.9623 78.1544 16.1981C76.8329 16.4245 75.5114 16.6509 74.1899 16.8774C74.3932 17.5566 74.7099 18.0991 75.1399 18.5047C75.5778 18.9104 76.0978 19.1132 76.6999 19.1132C77.0127 19.1132 77.3529 19.0425 77.7204 18.9009C78.0957 18.7594 78.4672 18.5849 78.8347 18.3774C79.2022 18.1604 79.5541 17.9292 79.8903 17.684C80.2266 17.4387 80.5159 17.217 80.7583 17.0189L80.1953 23.4434C79.8903 23.7264 79.558 23.967 79.1983 24.1651C78.8464 24.3632 78.4789 24.5236 78.0957 24.6462C77.7126 24.7689 77.3255 24.8585 76.9345 24.9151C76.5435 24.9717 76.1604 25 75.7851 25C75.0109 25 74.3032 24.8726 73.662 24.6179C73.0208 24.3632 72.4383 24.0094 71.9144 23.5566C71.3983 23.0943 70.9447 22.5519 70.5538 21.9292C70.1628 21.3066 69.8383 20.6274 69.5802 19.8915C69.3222 19.1557 69.1267 18.3774 68.9938 17.5566C68.8608 16.7358 68.7944 15.9057 68.7944 15.066C68.7944 14.1887 68.8608 13.3113 68.9938 12.434C69.1267 11.5566 69.3261 10.7123 69.592 9.90094C69.8657 9.08962 70.2058 8.33962 70.6124 7.65094C71.0269 6.95283 71.5078 6.34434 72.0551 5.82547C72.6025 5.3066 73.2202 4.90094 73.9084 4.60849C74.6043 4.31604 75.3706 4.16981 76.2073 4.16981C76.9033 4.16981 77.5366 4.28774 78.1075 4.52358C78.6861 4.75 79.1983 5.07075 79.644 5.48585C80.0975 5.89151 80.4885 6.37736 80.8169 6.9434C81.1532 7.50943 81.4269 8.13208 81.638 8.81132C81.8569 9.48113 82.0172 10.1934 82.1189 10.9481C82.2284 11.6934 82.2831 12.4528 82.2831 13.2264ZM77.5914 12.4906C77.5914 12.2264 77.5679 11.9575 77.521 11.684C77.4741 11.4009 77.3959 11.1462 77.2864 10.9198C77.1848 10.6934 77.0479 10.5094 76.8759 10.3679C76.7038 10.217 76.4888 10.1415 76.2308 10.1415C75.918 10.1415 75.6404 10.2453 75.398 10.4528C75.1634 10.6509 74.9601 10.9057 74.7881 11.217C74.616 11.5189 74.4753 11.8491 74.3658 12.2075C74.2563 12.566 74.1742 12.8962 74.1195 13.1981L77.5914 12.8019V12.4906Z" fill="white"/>
<path d="M93.5841 17.1604L93.0914 23.4434L83.2154 24.3774L83.5907 4.16981H89.6899L88.822 17.1604H93.5841Z" fill="white"/>
<path d="M109.166 23.4434L103.349 24.3491L102.645 21.1509H99.9705L99.384 24.3491L93.402 23.6415L98.0703 4.79245L104.592 4.39623L109.166 23.4434ZM102.223 16.8208L101.331 11.8962L100.463 16.8208H102.223Z" fill="white"/>
<path d="M123.212 4.73585C122.86 8.0566 122.559 11.3632 122.309 14.6557C122.059 17.9387 121.82 21.2453 121.593 24.5755L116.784 25L116.995 22.8208C116.839 23.0377 116.655 23.2264 116.444 23.3868C116.241 23.5472 116.022 23.6792 115.787 23.783C115.553 23.8774 115.31 23.9481 115.06 23.9953C114.81 24.033 114.571 24.0472 114.345 24.0377C113.813 24.0283 113.312 23.9057 112.843 23.6698C112.374 23.4245 111.944 23.1038 111.553 22.7075C111.162 22.3019 110.81 21.8349 110.497 21.3066C110.185 20.7689 109.919 20.2075 109.7 19.6226C109.489 19.0283 109.324 18.4245 109.207 17.8113C109.098 17.1981 109.043 16.6038 109.043 16.0283C109.043 15.1792 109.055 14.3019 109.078 13.3962C109.109 12.4811 109.16 11.566 109.231 10.6509C109.301 9.73585 109.391 8.83019 109.5 7.93396C109.618 7.03774 109.762 6.17925 109.934 5.35849C110.888 5.41509 111.846 5.46698 112.808 5.51415C113.77 5.56132 114.728 5.57547 115.682 5.5566C115.502 6.37736 115.322 7.20283 115.142 8.03302C114.97 8.85377 114.814 9.68396 114.673 10.5236C114.532 11.3538 114.419 12.1887 114.333 13.0283C114.247 13.8679 114.204 14.717 114.204 15.5755C114.204 15.7736 114.212 16.0566 114.227 16.4245C114.243 16.7925 114.282 17.1557 114.345 17.5142C114.415 17.8726 114.517 18.1887 114.65 18.4623C114.79 18.7264 114.986 18.8585 115.236 18.8585C115.533 18.8585 115.799 18.7075 116.034 18.4057C116.268 18.0943 116.475 17.6792 116.655 17.1604C116.835 16.6415 116.988 16.0425 117.113 15.3632C117.246 14.684 117.355 13.9764 117.441 13.2406C117.535 12.4953 117.609 11.7453 117.664 10.9906C117.719 10.2358 117.758 9.5283 117.781 8.86792C117.813 8.19811 117.832 7.59906 117.84 7.07075C117.856 6.54245 117.863 6.13208 117.863 5.83962C117.863 5.65094 117.859 5.46698 117.852 5.28774C117.844 5.10849 117.832 4.92453 117.816 4.73585C118.325 4.75472 118.829 4.76887 119.33 4.7783C119.83 4.78774 120.334 4.79245 120.843 4.79245C121.234 4.79245 121.625 4.79245 122.016 4.79245C122.414 4.78302 122.813 4.76415 123.212 4.73585Z" fill="white"/>
<path d="M136.577 4.70755L136.46 10.7075L132.965 10.8774L132.542 24.0094L127.593 24.3208L127.147 11.1887L123.652 11.4151L123.792 4.73585L136.577 4.70755Z" fill="white"/>
<path d="M151.749 13.8208C151.749 14.6792 151.667 15.5094 151.503 16.3113C151.338 17.1038 151.1 17.8491 150.787 18.5472C150.482 19.2453 150.107 19.8868 149.661 20.4717C149.223 21.0472 148.727 21.5425 148.171 21.9575C147.624 22.3726 147.026 22.6981 146.377 22.934C145.728 23.1604 145.04 23.2736 144.313 23.2736C143.609 23.2736 142.936 23.1651 142.295 22.9481C141.662 22.7311 141.067 22.4292 140.512 22.0425C139.957 21.6462 139.453 21.1745 138.999 20.6274C138.553 20.0708 138.17 19.4575 137.85 18.7877C137.537 18.1085 137.291 17.3821 137.111 16.6085C136.939 15.8349 136.853 15.0283 136.853 14.1887C136.853 13.3679 136.935 12.566 137.099 11.783C137.263 10.9906 137.498 10.2453 137.803 9.54717C138.116 8.84906 138.491 8.20755 138.929 7.62264C139.367 7.03774 139.855 6.53302 140.395 6.10849C140.942 5.68396 141.533 5.35377 142.166 5.11792C142.799 4.88208 143.468 4.76415 144.172 4.76415C145.306 4.76415 146.338 4.97642 147.268 5.40094C148.207 5.82547 149.004 6.43396 149.661 7.22642C150.326 8.00943 150.838 8.96226 151.198 10.0849C151.565 11.1981 151.749 12.4434 151.749 13.8208ZM146.541 14.1887C146.541 13.783 146.49 13.3915 146.389 13.0142C146.295 12.6274 146.154 12.2877 145.966 11.9953C145.779 11.6934 145.544 11.4528 145.263 11.2736C144.989 11.0849 144.672 10.9906 144.313 10.9906C143.945 10.9906 143.617 11.0708 143.327 11.2311C143.038 11.3915 142.788 11.6132 142.577 11.8962C142.373 12.1698 142.217 12.4953 142.107 12.8726C141.998 13.2406 141.943 13.6321 141.943 14.0472C141.943 14.4434 141.99 14.8396 142.084 15.2358C142.178 15.6321 142.319 15.9906 142.506 16.3113C142.694 16.6321 142.925 16.8915 143.198 17.0896C143.48 17.2877 143.804 17.3868 144.172 17.3868C144.539 17.3868 144.868 17.3019 145.157 17.1321C145.454 16.9528 145.704 16.717 145.908 16.4245C146.111 16.1226 146.267 15.7783 146.377 15.3915C146.486 15.0047 146.541 14.6038 146.541 14.1887Z" fill="white"/>
<path d="M173.102 15.066C173.102 16.4151 173.067 17.7594 172.996 19.0991C172.926 20.4387 172.844 21.783 172.75 23.1321L166.721 23.4717C166.901 21.8302 167.061 20.1887 167.202 18.5472C167.351 16.8962 167.425 15.2453 167.425 13.5943C167.425 13.4906 167.421 13.3113 167.413 13.0566C167.405 12.7925 167.39 12.4953 167.366 12.1651C167.351 11.8349 167.323 11.4953 167.284 11.1462C167.253 10.7877 167.206 10.4623 167.143 10.1698C167.089 9.86792 167.018 9.62264 166.932 9.43396C166.846 9.24528 166.745 9.15094 166.627 9.15094C166.354 9.15094 166.139 9.2783 165.982 9.53302C165.826 9.7783 165.709 10.0755 165.63 10.4245C165.56 10.7736 165.517 11.1321 165.501 11.5C165.486 11.8585 165.478 12.1509 165.478 12.3774C165.478 12.7736 165.486 13.1698 165.501 13.566C165.517 13.9623 165.525 14.3679 165.525 14.783C165.525 16.2453 165.494 17.7028 165.431 19.1557C165.376 20.6085 165.306 22.066 165.22 23.5283L159.66 23.783C159.84 22.1415 159.996 20.5047 160.129 18.8726C160.27 17.2311 160.34 15.5849 160.34 13.934C160.34 13.8302 160.337 13.6415 160.329 13.3679C160.321 13.0943 160.305 12.7877 160.282 12.4481C160.266 12.1085 160.239 11.7547 160.2 11.3868C160.161 11.0189 160.11 10.684 160.047 10.3821C159.992 10.0708 159.922 9.81604 159.836 9.61792C159.75 9.41981 159.644 9.32076 159.519 9.32076C159.324 9.32076 159.16 9.41509 159.027 9.60377C158.894 9.78302 158.784 10.0189 158.698 10.3113C158.62 10.6038 158.558 10.9292 158.511 11.2877C158.472 11.6368 158.44 11.9811 158.417 12.3208C158.401 12.6604 158.389 12.9764 158.382 13.2689C158.382 13.5519 158.378 13.7642 158.37 13.9057L158.112 24.2358H152.2C152.325 22.6415 152.45 21.0425 152.576 19.4387C152.709 17.8349 152.822 16.2358 152.916 14.6415C153.017 13.0377 153.1 11.434 153.162 9.83019C153.225 8.22642 153.256 6.62264 153.256 5.01887L158.839 4.73585L158.816 6.37736C158.988 6.11321 159.183 5.84906 159.402 5.58491C159.621 5.31132 159.852 5.07075 160.094 4.86321C160.344 4.64623 160.606 4.4717 160.88 4.33962C161.161 4.20755 161.451 4.14151 161.748 4.14151C162.131 4.14151 162.475 4.17925 162.78 4.25472C163.085 4.32075 163.359 4.43868 163.601 4.60849C163.851 4.7783 164.07 5.01415 164.258 5.31604C164.446 5.60849 164.61 5.98113 164.751 6.43396C165.001 6.10377 165.251 5.79717 165.501 5.51415C165.759 5.23113 166.029 4.99057 166.311 4.79245C166.592 4.58491 166.897 4.42453 167.226 4.31132C167.554 4.19811 167.918 4.14151 168.316 4.14151C169.075 4.14151 169.72 4.32075 170.252 4.67925C170.783 5.0283 171.225 5.49528 171.577 6.08019C171.937 6.66509 172.214 7.33491 172.41 8.08962C172.613 8.84434 172.766 9.62736 172.867 10.4387C172.969 11.25 173.032 12.0566 173.055 12.8585C173.086 13.6604 173.102 14.3962 173.102 15.066Z" fill="white"/>
<path d="M189.212 23.4434L183.394 24.3491L182.69 21.1509H180.016L179.43 24.3491L173.448 23.6415L178.116 4.79245L184.637 4.39623L189.212 23.4434ZM182.268 16.8208L181.377 11.8962L180.509 16.8208H182.268Z" fill="white"/>
<path d="M200.665 4.70755L200.548 10.7075L197.053 10.8774L196.631 24.0094L191.681 24.3208L191.235 11.1887L187.74 11.4151L187.88 4.73585L200.665 4.70755Z" fill="white"/>
<path d="M214.43 13.2264C214.43 14.0472 214.383 14.8679 214.289 15.6887C212.952 15.7925 211.622 15.9623 210.301 16.1981C208.979 16.4245 207.658 16.6509 206.336 16.8774C206.54 17.5566 206.856 18.0991 207.286 18.5047C207.724 18.9104 208.244 19.1132 208.846 19.1132C209.159 19.1132 209.499 19.0425 209.867 18.9009C210.242 18.7594 210.614 18.5849 210.981 18.3774C211.349 18.1604 211.701 17.9292 212.037 17.684C212.373 17.4387 212.662 17.217 212.905 17.0189L212.342 23.4434C212.037 23.7264 211.704 23.967 211.345 24.1651C210.993 24.3632 210.625 24.5236 210.242 24.6462C209.859 24.7689 209.472 24.8585 209.081 24.9151C208.69 24.9717 208.307 25 207.932 25C207.157 25 206.45 24.8726 205.808 24.6179C205.167 24.3632 204.585 24.0094 204.061 23.5566C203.545 23.0943 203.091 22.5519 202.7 21.9292C202.309 21.3066 201.985 20.6274 201.727 19.8915C201.469 19.1557 201.273 18.3774 201.14 17.5566C201.007 16.7358 200.941 15.9057 200.941 15.066C200.941 14.1887 201.007 13.3113 201.14 12.434C201.273 11.5566 201.473 10.7123 201.738 9.90094C202.012 9.08962 202.352 8.33962 202.759 7.65094C203.173 6.95283 203.654 6.34434 204.202 5.82547C204.749 5.3066 205.367 4.90094 206.055 4.60849C206.751 4.31604 207.517 4.16981 208.354 4.16981C209.05 4.16981 209.683 4.28774 210.254 4.52358C210.833 4.75 211.345 5.07075 211.79 5.48585C212.244 5.89151 212.635 6.37736 212.963 6.9434C213.3 7.50943 213.573 8.13208 213.784 8.81132C214.003 9.48113 214.164 10.1934 214.265 10.9481C214.375 11.6934 214.43 12.4528 214.43 13.2264ZM209.738 12.4906C209.738 12.2264 209.714 11.9575 209.667 11.684C209.621 11.4009 209.542 11.1462 209.433 10.9198C209.331 10.6934 209.194 10.5094 209.022 10.3679C208.85 10.217 208.635 10.1415 208.377 10.1415C208.064 10.1415 207.787 10.2453 207.544 10.4528C207.31 10.6509 207.107 10.9057 206.935 11.217C206.762 11.5189 206.622 11.8491 206.512 12.2075C206.403 12.566 206.321 12.8962 206.266 13.1981L209.738 12.8019V12.4906Z" fill="white"/>
<path d="M230 17.5C230 18.566 229.988 19.6226 229.965 20.6698C229.949 21.7075 229.922 22.7547 229.883 23.8113L223.127 23.6698C223.361 22 223.564 20.3349 223.737 18.6745C223.909 17.0047 223.995 15.3208 223.995 13.6226C223.995 13.5 223.991 13.3019 223.983 13.0283C223.975 12.7547 223.959 12.4481 223.936 12.1085C223.912 11.7594 223.877 11.4057 223.83 11.0472C223.791 10.6792 223.733 10.3443 223.654 10.0425C223.584 9.74057 223.494 9.49528 223.385 9.3066C223.283 9.10849 223.158 9.00943 223.009 9.00943C222.743 9.00943 222.517 9.10377 222.329 9.29245C222.149 9.48113 221.997 9.72642 221.872 10.0283C221.754 10.3208 221.66 10.6509 221.59 11.0189C221.52 11.3868 221.465 11.7547 221.426 12.1226C221.395 12.4906 221.371 12.8396 221.355 13.1698C221.348 13.4906 221.344 13.7547 221.344 13.9623C221.305 15.6321 221.273 17.2925 221.25 18.9434C221.226 20.5849 221.195 22.2453 221.156 23.9245L215.174 24.2358C215.331 20.9057 215.479 17.5943 215.62 14.3019C215.768 11.0094 215.886 7.69811 215.972 4.36792L221.508 4.0283L221.461 6.29245C221.68 5.9717 221.915 5.66981 222.165 5.38679C222.423 5.10377 222.697 4.86321 222.986 4.66509C223.275 4.45755 223.58 4.29717 223.901 4.18396C224.229 4.06132 224.573 4 224.933 4C225.598 4 226.18 4.13208 226.681 4.39623C227.181 4.66038 227.611 5.01887 227.971 5.4717C228.331 5.92453 228.632 6.46226 228.874 7.08491C229.116 7.69811 229.312 8.35377 229.46 9.05189C229.609 9.75 229.722 10.4811 229.801 11.2453C229.879 12 229.93 12.7453 229.953 13.4811C229.984 14.217 230 14.9292 230 15.6179C230 16.3066 230 16.934 230 17.5Z" fill="white"/>
<path d="M23.4565 0C22.054 0 20.913 1.14095 20.913 2.54348C20.913 3.64731 21.624 4.57961 22.6087 4.93071V11.8696H20.913V10.4565C20.913 4.69061 16.2224 0 10.4565 0C4.69061 0 0 4.69061 0 10.4565V23.4565C0 24.859 1.14095 26 2.54348 26H18.3696C19.7721 26 20.913 24.859 20.913 23.4565V13.5652H23.4565C23.9246 13.5652 24.3044 13.1857 24.3044 12.7174V4.93071C25.2891 4.57961 26 3.64736 26 2.54348C26 1.14095 24.859 0 23.4565 0ZM4.86063 7.34698C5.69964 4.98098 7.94833 3.39132 10.4565 3.39132C12.9647 3.39132 15.2134 4.98098 16.0524 7.34698C16.2086 7.78832 15.9779 8.27293 15.5363 8.42938C15.0986 8.58604 14.6118 8.35773 14.4539 7.91385C13.8544 6.22294 12.2482 5.08696 10.4565 5.08696C8.66486 5.08696 7.05859 6.22294 6.45912 7.9139C6.30241 8.35494 5.8177 8.58701 5.37672 8.42943C4.93512 8.27293 4.70443 7.78832 4.86063 7.34698ZM11.3044 7.63044C11.3044 8.09864 10.9248 8.47828 10.4565 8.47828C9.98832 8.47828 9.60868 8.0987 9.60868 7.63044C9.60868 7.16219 9.98827 6.7826 10.4565 6.7826C10.9247 6.7826 11.3044 7.16219 11.3044 7.63044ZM14.6956 22.6087H6.2174C5.74935 22.6087 5.36956 22.2292 5.36956 21.7608C5.36956 21.2925 5.74935 20.913 6.2174 20.913H14.6956C15.1637 20.913 15.5435 21.2925 15.5435 21.7608C15.5435 22.2292 15.1637 22.6087 14.6956 22.6087ZM17.2391 18.3696C17.2391 18.8379 16.8593 19.2174 16.3913 19.2174H4.52177C4.05371 19.2174 3.67392 18.8379 3.67392 18.3696V11.0217C3.67392 10.5534 4.05371 10.1739 4.52177 10.1739H16.3913C16.8594 10.1739 17.2392 10.5534 17.2392 11.0217V18.3696H17.2391Z" fill="white"/>
<path d="M11.5871 11.8696H9.32617V17.5217H11.5871V11.8696Z" fill="white"/>
<path d="M7.63051 11.8696H5.36963V17.5217H7.63051V11.8696Z" fill="white"/>
<path d="M15.5431 11.8696H13.2822V17.5217H15.5431V11.8696Z" fill="white"/>
</svg>
