<svg width="46" height="62" viewBox="0 0 46 62" fill="none" xmlns="http://www.w3.org/2000/svg">
<path d="M10.7729 43.0021L8.31492 43.122L3.5494 56.8135C3.39755 57.2496 3.7509 57.6956 4.21021 57.6474L10.8901 56.9479C11.0767 56.9284 11.2622 56.993 11.3964 57.1241L16.1984 61.82C16.5285 62.1429 17.0823 62.0127 17.2341 61.5766L22.0307 47.7956L20.6163 46.4228L10.7729 43.0021Z" fill="#E536B7"/>
<path d="M22.0304 47.7956L22.9996 45.011L9.28093 40.3458L8.31461 43.1221C12.2102 45.9018 16.927 47.6034 22.0304 47.7956Z" fill="#A631C9"/>
<path d="M35.2263 43.0021L37.6843 43.122L42.4498 56.8135C42.6017 57.2496 42.2483 57.6956 41.789 57.6474L35.1091 56.9479C34.9225 56.9284 34.737 56.993 34.6029 57.1241L29.801 61.82C29.4709 62.1429 28.917 62.0127 28.7652 61.5766L23.9686 47.7956L25.383 46.4228L35.2263 43.0021Z" fill="#E536B7"/>
<path d="M23.9692 47.7956L23 45.011L36.7187 40.3458L37.685 43.1221C33.7895 45.9018 29.0726 47.6034 23.9692 47.7956Z" fill="#A631C9"/>
<path d="M23.0008 43.6078C0.495234 43.6078 0.50468 21.7469 0.523329 21.3711C1.11415 9.4688 10.9517 0 23.0008 0C35.0498 0 44.8874 9.4688 45.4782 21.3712C45.4968 21.747 45.5063 43.6078 23.0008 43.6078Z" fill="#FFE27A"/>
<path d="M22.9997 42.7423C10.9506 42.7423 1.11341 33.2735 0.522477 21.3711C0.503828 21.7468 0.494141 22.125 0.494141 22.5054C0.494141 34.9348 10.5702 45.0109 22.9997 45.0109C35.4291 45.0109 45.5052 34.9348 45.5052 22.5054C45.5052 22.1249 45.4955 21.7468 45.4768 21.3711C44.8859 33.2735 35.0487 42.7423 22.9997 42.7423Z" fill="#F9CF58"/>
<path d="M23 38.7652C5.3061 38.7652 5.28236 21.3663 5.3061 20.9911C5.8911 11.7279 13.5893 4.39594 23 4.39594C32.4106 4.39594 40.1088 11.7279 40.6938 20.9911C40.7175 21.3661 40.6938 38.7652 23 38.7652Z" fill="#FFBA57"/>
<path d="M22.9993 37.9664C13.5887 37.9664 5.89189 30.6342 5.30689 21.3711C5.28316 21.7462 5.26971 22.1243 5.26971 22.5054C5.26971 32.2971 13.2075 40.235 22.9993 40.235C32.7911 40.235 40.7289 32.2971 40.7289 22.5054C40.7289 22.1242 40.7154 21.7462 40.6917 21.3711C40.1067 30.6342 32.4099 37.9664 22.9993 37.9664Z" fill="#FFAC3E"/>
<path d="M24.0108 33.0368C22.7799 33.0368 21.7819 32.039 21.7819 30.808V29.6291V18.317C21.7819 18.317 20.4483 19.6545 18.8527 18.852C17.6086 18.2263 17.6086 16.6159 17.6086 16.6159L20.3565 11.9773C20.7578 11.2999 21.4868 10.8844 22.2742 10.8844H24.0108C25.2417 10.8844 26.2396 11.8822 26.2396 13.1133V29.6291V30.808C26.2396 32.039 25.2417 33.0368 24.0108 33.0368Z" fill="#FFE27A"/>
<path d="M21.4757 16.5656C20.8842 17.5643 19.6264 17.9973 18.5774 17.5002C18.1528 17.2991 17.8255 16.9865 17.6079 16.6174C16.989 17.6644 17.324 19.0113 18.3545 19.6477C19.4173 20.304 20.8373 19.9122 21.4738 18.8375L21.7821 18.3169V16.6493C21.7821 16.4819 21.5611 16.4215 21.4757 16.5656Z" fill="#F9CF58"/>
<path d="M24.0108 31.8579C22.7799 31.8579 21.782 30.8601 21.782 29.6291V31.8978C21.782 33.1288 22.7799 34.1266 24.0108 34.1266C25.2417 34.1266 26.2396 33.1288 26.2396 31.8978V29.6291C26.2396 30.8601 25.2417 31.8579 24.0108 31.8579Z" fill="#F9CF58"/>
</svg>
