<svg width="99" height="19" viewBox="0 0 99 19" fill="none" xmlns="http://www.w3.org/2000/svg">
<path d="M9.36779 0.000488281L12.0658 5.65471L18.2771 6.47347L13.7333 10.7867L14.874 16.947L9.36779 13.9585L3.86154 16.947L5.00223 10.7867L0.458492 6.47347L6.66973 5.65471L9.36779 0.000488281Z" fill="#FFD91D"/>
<path d="M69.0875 0L71.7856 5.65423L77.9968 6.47298L73.4531 10.7862L74.5938 16.9465L69.0875 13.958L63.5813 16.9465L64.722 10.7862L60.1782 6.47298L66.3895 5.65423L69.0875 0Z" fill="#FFD91D"/>
<path d="M29.2745 0L31.9726 5.65423L38.1838 6.47298L33.6401 10.7862L34.7808 16.9465L29.2745 13.958L23.7683 16.9465L24.909 10.7862L20.3652 6.47298L26.5765 5.65423L29.2745 0Z" fill="#FFD91D"/>
<path d="M88.9945 0L91.6926 5.65423L97.9038 6.47298L93.3601 10.7862L94.5007 16.9465L88.9945 13.958L83.4882 16.9465L84.6289 10.7862L80.0852 6.47298L86.2964 5.65423L88.9945 0Z" fill="#FFD91D"/>
<path d="M49.181 0L51.8791 5.65423L58.0903 6.47298L53.5466 10.7862L54.6873 16.9465L49.181 13.958L43.6748 16.9465L44.8155 10.7862L40.2717 6.47298L46.483 5.65423L49.181 0Z" fill="#FFD91D"/>
</svg>
